<mxfile host="app.diagrams.net" modified="2023-10-06T00:10:16.936Z" agent="Mozilla/5.0 (Macintosh; Intel Mac OS X 10_15_7) AppleWebKit/537.36 (KHTML, like Gecko) Chrome/117.0.0.0 Safari/537.36" etag="lMSqOWODxK8VQR5xRKt5" version="22.0.2" type="github">
  <diagram id="C5RBs43oDa-KdzZeNtuy" name="Page-1">
    <mxGraphModel dx="1018" dy="805" grid="1" gridSize="10" guides="1" tooltips="1" connect="1" arrows="1" fold="1" page="1" pageScale="1" pageWidth="827" pageHeight="1169" math="0" shadow="0">
      <root>
        <mxCell id="WIyWlLk6GJQsqaUBKTNV-0" />
        <mxCell id="WIyWlLk6GJQsqaUBKTNV-1" parent="WIyWlLk6GJQsqaUBKTNV-0" />
        <mxCell id="fP_J6S1NjW1sJ828qq0C-4" value="" style="edgeStyle=orthogonalEdgeStyle;rounded=0;orthogonalLoop=1;jettySize=auto;html=1;" edge="1" parent="WIyWlLk6GJQsqaUBKTNV-1" source="WIyWlLk6GJQsqaUBKTNV-3" target="fP_J6S1NjW1sJ828qq0C-3">
          <mxGeometry relative="1" as="geometry" />
        </mxCell>
        <mxCell id="WIyWlLk6GJQsqaUBKTNV-3" value="makeLottoNumbers() -&amp;gt; Set&lt;br&gt;&amp;nbsp;호출" style="rounded=1;whiteSpace=wrap;html=1;fontSize=12;glass=0;strokeWidth=1;shadow=0;" parent="WIyWlLk6GJQsqaUBKTNV-1" vertex="1">
          <mxGeometry x="227.5" y="80" width="155" height="40" as="geometry" />
        </mxCell>
        <mxCell id="fP_J6S1NjW1sJ828qq0C-6" style="edgeStyle=orthogonalEdgeStyle;rounded=0;orthogonalLoop=1;jettySize=auto;html=1;entryX=0.5;entryY=0;entryDx=0;entryDy=0;" edge="1" parent="WIyWlLk6GJQsqaUBKTNV-1" source="fP_J6S1NjW1sJ828qq0C-3" target="fP_J6S1NjW1sJ828qq0C-5">
          <mxGeometry relative="1" as="geometry" />
        </mxCell>
        <mxCell id="fP_J6S1NjW1sJ828qq0C-3" value="var lottoNumbers: Set&amp;lt;Int&amp;gt; = Set&amp;lt;Int&amp;gt;()&lt;br&gt;생성" style="whiteSpace=wrap;html=1;rounded=1;glass=0;strokeWidth=1;shadow=0;" vertex="1" parent="WIyWlLk6GJQsqaUBKTNV-1">
          <mxGeometry x="245" y="190" width="120" height="60" as="geometry" />
        </mxCell>
        <mxCell id="fP_J6S1NjW1sJ828qq0C-12" value="" style="edgeStyle=orthogonalEdgeStyle;rounded=0;orthogonalLoop=1;jettySize=auto;html=1;" edge="1" parent="WIyWlLk6GJQsqaUBKTNV-1" source="fP_J6S1NjW1sJ828qq0C-5" target="fP_J6S1NjW1sJ828qq0C-11">
          <mxGeometry relative="1" as="geometry" />
        </mxCell>
        <mxCell id="fP_J6S1NjW1sJ828qq0C-5" value="lottoNumbers.count == 6 까지 반복" style="swimlane;startSize=23;" vertex="1" parent="WIyWlLk6GJQsqaUBKTNV-1">
          <mxGeometry x="120" y="310" width="370" height="230" as="geometry" />
        </mxCell>
        <mxCell id="fP_J6S1NjW1sJ828qq0C-10" value="" style="edgeStyle=orthogonalEdgeStyle;rounded=0;orthogonalLoop=1;jettySize=auto;html=1;" edge="1" parent="fP_J6S1NjW1sJ828qq0C-5" source="fP_J6S1NjW1sJ828qq0C-7" target="fP_J6S1NjW1sJ828qq0C-9">
          <mxGeometry relative="1" as="geometry" />
        </mxCell>
        <mxCell id="fP_J6S1NjW1sJ828qq0C-7" value="var lottoNumber: Int = Int.random(in:1...45)" style="rounded=1;whiteSpace=wrap;html=1;" vertex="1" parent="fP_J6S1NjW1sJ828qq0C-5">
          <mxGeometry x="125" y="40" width="120" height="60" as="geometry" />
        </mxCell>
        <mxCell id="fP_J6S1NjW1sJ828qq0C-8" style="edgeStyle=orthogonalEdgeStyle;rounded=0;orthogonalLoop=1;jettySize=auto;html=1;exitX=0.5;exitY=1;exitDx=0;exitDy=0;" edge="1" parent="fP_J6S1NjW1sJ828qq0C-5" source="fP_J6S1NjW1sJ828qq0C-7" target="fP_J6S1NjW1sJ828qq0C-7">
          <mxGeometry relative="1" as="geometry" />
        </mxCell>
        <mxCell id="fP_J6S1NjW1sJ828qq0C-9" value="lottoNumbers.insert&lt;br&gt;(lottoNumber)" style="whiteSpace=wrap;html=1;rounded=1;" vertex="1" parent="fP_J6S1NjW1sJ828qq0C-5">
          <mxGeometry x="125" y="130" width="120" height="60" as="geometry" />
        </mxCell>
        <mxCell id="fP_J6S1NjW1sJ828qq0C-11" value="return lottoNumbers" style="whiteSpace=wrap;html=1;fontStyle=1;startSize=23;" vertex="1" parent="WIyWlLk6GJQsqaUBKTNV-1">
          <mxGeometry x="245" y="625" width="120" height="60" as="geometry" />
        </mxCell>
      </root>
    </mxGraphModel>
  </diagram>
</mxfile>
